{"accessors":[{"bufferView":0,"byteOffset":0,"componentType":5126,"count":356,"max":[11.848104476928711,15.558119773864746,0.2790600061416626],"min":[8.151895523071289,14.441880226135254,-0.2790600061416626],"type":"VEC3"},{"bufferView":1,"byteOffset":0,"componentType":5125,"count":2088,"type":"SCALAR"},{"bufferView":2,"byteOffset":0,"componentType":5126,"count":2,"max":[10.0,20.0,0.0],"min":[10.0,10.0,0.0],"type":"VEC3"},{"bufferView":3,"byteOffset":0,"componentType":5126,"count":2,"normalized":false,"type":"VEC2"},{"bufferView":4,"byteOffset":0,"componentType":5125,"count":2,"type":"SCALAR"},{"bufferView":5,"byteOffset":0,"componentType":5126,"count":398,"max":[11.810779571533203,20.41580581665039,2.707902431488037],"min":[8.189220428466797,19.58419418334961,2.292097568511963],"type":"VEC3"},{"bufferView":6,"byteOffset":0,"componentType":5125,"count":2364,"type":"SCALAR"},{"bufferView":7,"byteOffset":0,"componentType":5126,"count":8,"max":[12.5,22.5,2.5],"min":[7.5,17.5,-2.5],"type":"VEC3"},{"bufferView":8,"byteOffset":0,"componentType":5126,"count":8,"normalized":false,"type":"VEC2"},{"bufferView":9,"byteOffset":0,"componentType":5125,"count":36,"type":"SCALAR"},{"bufferView":10,"byteOffset":0,"componentType":5126,"count":444,"max":[6.533417224884033,10.542770385742188,0.2713850140571594],"min":[3.466582775115967,9.457229614257813,-0.2713850140571594],"type":"VEC3"},{"bufferView":11,"byteOffset":0,"componentType":5125,"count":2640,"type":"SCALAR"},{"bufferView":12,"byteOffset":0,"componentType":5126,"count":2,"max":[10.0,10.0,0.0],"min":[0.0,10.0,0.0],"type":"VEC3"},{"bufferView":13,"byteOffset":0,"componentType":5126,"count":2,"normalized":false,"type":"VEC2"},{"bufferView":14,"byteOffset":0,"componentType":5125,"count":2,"type":"SCALAR"},{"bufferView":15,"byteOffset":0,"componentType":5126,"count":398,"max":[11.810779571533203,10.415804862976074,2.707902431488037],"min":[8.189220428466797,9.584195137023926,2.292097568511963],"type":"VEC3"},{"bufferView":16,"byteOffset":0,"componentType":5125,"count":2364,"type":"SCALAR"},{"bufferView":17,"byteOffset":0,"componentType":5126,"count":8,"max":[12.5,12.5,2.5],"min":[7.5,7.5,-2.5],"type":"VEC3"},{"bufferView":18,"byteOffset":0,"componentType":5126,"count":8,"normalized":false,"type":"VEC2"},{"bufferView":19,"byteOffset":0,"componentType":5125,"count":36,"type":"SCALAR"},{"bufferView":20,"byteOffset":0,"componentType":5126,"count":356,"max":[1.8481049537658691,5.558119773864746,0.2790600061416626],"min":[-1.8481049537658691,4.441880226135254,-0.2790600061416626],"type":"VEC3"},{"bufferView":21,"byteOffset":0,"componentType":5125,"count":2088,"type":"SCALAR"},{"bufferView":22,"byteOffset":0,"componentType":5126,"count":2,"max":[0.0,10.0,0.0],"min":[0.0,0.0,0.0],"type":"VEC3"},{"bufferView":23,"byteOffset":0,"componentType":5126,"count":2,"normalized":false,"type":"VEC2"},{"bufferView":24,"byteOffset":0,"componentType":5125,"count":2,"type":"SCALAR"},{"bufferView":25,"byteOffset":0,"componentType":5126,"count":398,"max":[1.810779094696045,10.415804862976074,2.707902431488037],"min":[-1.810779094696045,9.584195137023926,2.292097568511963],"type":"VEC3"},{"bufferView":26,"byteOffset":0,"componentType":5125,"count":2364,"type":"SCALAR"},{"bufferView":27,"byteOffset":0,"componentType":5126,"count":8,"max":[2.5,12.5,2.5],"min":[-2.5,7.5,-2.5],"type":"VEC3"},{"bufferView":28,"byteOffset":0,"componentType":5126,"count":8,"normalized":false,"type":"VEC2"},{"bufferView":29,"byteOffset":0,"componentType":5125,"count":36,"type":"SCALAR"},{"bufferView":30,"byteOffset":0,"componentType":5126,"count":410,"max":[1.6796714067459106,0.5427700281143188,2.7713849544525146],"min":[-1.6796714067459106,-0.5427700281143188,2.2286150455474854],"type":"VEC3"},{"bufferView":31,"byteOffset":0,"componentType":5125,"count":2412,"type":"SCALAR"},{"bufferView":32,"byteOffset":0,"componentType":5126,"count":8,"max":[2.5,2.5,2.5],"min":[-2.5,-2.5,-2.5],"type":"VEC3"},{"bufferView":33,"byteOffset":0,"componentType":5126,"count":8,"normalized":false,"type":"VEC2"},{"bufferView":34,"byteOffset":0,"componentType":5125,"count":36,"type":"SCALAR"},{"bufferView":35,"byteOffset":0,"componentType":5126,"count":8,"max":[12.5,2.5,2.5],"min":[7.5,-2.5,-2.5],"type":"VEC3"},{"bufferView":36,"byteOffset":0,"componentType":5126,"count":8,"normalized":false,"type":"VEC2"},{"bufferView":37,"byteOffset":0,"componentType":5125,"count":36,"type":"SCALAR"},{"bufferView":38,"byteOffset":0,"componentType":5126,"count":398,"max":[11.810779571533203,0.41580498218536377,2.707902431488037],"min":[8.189220428466797,-0.41580498218536377,2.292097568511963],"type":"VEC3"},{"bufferView":39,"byteOffset":0,"componentType":5125,"count":2364,"type":"SCALAR"},{"bufferView":40,"byteOffset":0,"componentType":5126,"count":2,"max":[10.0,0.0,0.0],"min":[0.0,0.0,0.0],"type":"VEC3"},{"bufferView":41,"byteOffset":0,"componentType":5126,"count":2,"normalized":false,"type":"VEC2"},{"bufferView":42,"byteOffset":0,"componentType":5125,"count":2,"type":"SCALAR"},{"bufferView":43,"byteOffset":0,"componentType":5126,"count":444,"max":[6.533417224884033,0.5427700281143188,0.2713850140571594],"min":[3.466582775115967,-0.5427700281143188,-0.2713850140571594],"type":"VEC3"},{"bufferView":44,"byteOffset":0,"componentType":5125,"count":2640,"type":"SCALAR"}],"asset":{"generator":"VTK","version":"2.0"},"bufferViews":[{"buffer":0,"byteLength":4272,"byteOffset":0,"target":34962},{"buffer":1,"byteLength":8352,"byteOffset":0,"target":34963},{"buffer":2,"byteLength":24,"byteOffset":0,"target":34962},{"buffer":3,"byteLength":16,"byteOffset":0,"target":34962},{"buffer":4,"byteLength":8,"byteOffset":0,"target":34963},{"buffer":5,"byteLength":4776,"byteOffset":0,"target":34962},{"buffer":6,"byteLength":9456,"byteOffset":0,"target":34963},{"buffer":7,"byteLength":96,"byteOffset":0,"target":34962},{"buffer":8,"byteLength":64,"byteOffset":0,"target":34962},{"buffer":9,"byteLength":144,"byteOffset":0,"target":34963},{"buffer":10,"byteLength":5328,"byteOffset":0,"target":34962},{"buffer":11,"byteLength":10560,"byteOffset":0,"target":34963},{"buffer":12,"byteLength":24,"byteOffset":0,"target":34962},{"buffer":13,"byteLength":16,"byteOffset":0,"target":34962},{"buffer":14,"byteLength":8,"byteOffset":0,"target":34963},{"buffer":15,"byteLength":4776,"byteOffset":0,"target":34962},{"buffer":16,"byteLength":9456,"byteOffset":0,"target":34963},{"buffer":17,"byteLength":96,"byteOffset":0,"target":34962},{"buffer":18,"byteLength":64,"byteOffset":0,"target":34962},{"buffer":19,"byteLength":144,"byteOffset":0,"target":34963},{"buffer":20,"byteLength":4272,"byteOffset":0,"target":34962},{"buffer":21,"byteLength":8352,"byteOffset":0,"target":34963},{"buffer":22,"byteLength":24,"byteOffset":0,"target":34962},{"buffer":23,"byteLength":16,"byteOffset":0,"target":34962},{"buffer":24,"byteLength":8,"byteOffset":0,"target":34963},{"buffer":25,"byteLength":4776,"byteOffset":0,"target":34962},{"buffer":26,"byteLength":9456,"byteOffset":0,"target":34963},{"buffer":27,"byteLength":96,"byteOffset":0,"target":34962},{"buffer":28,"byteLength":64,"byteOffset":0,"target":34962},{"buffer":29,"byteLength":144,"byteOffset":0,"target":34963},{"buffer":30,"byteLength":4920,"byteOffset":0,"target":34962},{"buffer":31,"byteLength":9648,"byteOffset":0,"target":34963},{"buffer":32,"byteLength":96,"byteOffset":0,"target":34962},{"buffer":33,"byteLength":64,"byteOffset":0,"target":34962},{"buffer":34,"byteLength":144,"byteOffset":0,"target":34963},{"buffer":35,"byteLength":96,"byteOffset":0,"target":34962},{"buffer":36,"byteLength":64,"byteOffset":0,"target":34962},{"buffer":37,"byteLength":144,"byteOffset":0,"target":34963},{"buffer":38,"byteLength":4776,"byteOffset":0,"target":34962},{"buffer":39,"byteLength":9456,"byteOffset":0,"target":34963},{"buffer":40,"byteLength":24,"byteOffset":0,"target":34962},{"buffer":41,"byteLength":16,"byteOffset":0,"target":34962},{"buffer":42,"byteLength":8,"byteOffset":0,"target":34963},{"buffer":43,"byteLength":5328,"byteOffset":0,"target":34962},{"buffer":44,"byteLength":10560,"byteOffset":0,"target":34963}],"buffers":[{"byteLength":4272,"uri":"data:application/octet-stream;base64,"},{"byteLength":8352,"uri":"data:application/octet-stream;base64,"},{"byteLength":24,"uri":"data:application/octet-stream;base64,"},{"byteLength":16,"uri":"data:application/octet-stream;base64,"},{"byteLength":8,"uri":"data:application/octet-stream;base64,"},{"byteLength":4776,"uri":"data:application/octet-stream;base64,"},{"byteLength":9456,"uri":"data:application/octet-stream;base64,"},{"byteLength":96,"uri":"data:application/octet-stream;base64,"},{"byteLength":64,"uri":"data:application/octet-stream;base64,"},{"byteLength":144,"uri":"data:application/octet-stream;base64,"},{"byteLength":5328,"uri":"data:application/octet-stream;base64,"},{"byteLength":10560,"uri":"data:application/octet-stream;base64,"},{"byteLength":24,"uri":"data:application/octet-stream;base64,"},{"byteLength":16,"uri":"data:application/octet-stream;base64,"},{"byteLength":8,"uri":"data:application/octet-stream;base64,"},{"byteLength":4776,"uri":"data:application/octet-stream;base64,"},{"byteLength":9456,"uri":"data:application/octet-stream;base64,"},{"byteLength":96,"uri":"data:application/octet-stream;base64,"},{"byteLength":64,"uri":"data:application/octet-stream;base64,"},{"byteLength":144,"uri":"data:application/octet-stream;base64,"},{"byteLength":4272,"uri":"data:application/octet-stream;base64,"},{"byteLength":8352,"uri":"data:application/octet-stream;base64,"},{"byteLength":24,"uri":"data:application/octet-stream;base64,"},{"byteLength":16,"uri":"data:application/octet-stream;base64,"},{"byteLength":8,"uri":"data:application/octet-stream;base64,"},{"byteLength":4776,"uri":"data:application/octet-stream;base64,"},{"byteLength":9456,"uri":"data:application/octet-stream;base64,"},{"byteLength":96,"uri":"data:application/octet-stream;base64,"},{"byteLength":64,"uri":"data:application/octet-stream;base64,"},{"byteLength":144,"uri":"data:application/octet-stream;base64,"},{"byteLength":4920,"uri":"data:application/octet-stream;base64,"},{"byteLength":9648,"uri":"data:application/octet-stream;base64,"},{"byteLength":96,"uri":"data:application/octet-stream;base64,"},{"byteLength":64,"uri":"data:application/octet-stream;base64,"},{"byteLength":144,"uri":"data:application/octet-stream;base64,"},{"byteLength":96,"uri":"data:application/octet-stream;base64,"},{"byteLength":64,"uri":"data:application/octet-stream;base64,"},{"byteLength":144,"uri":"data:application/octet-stream;base64,"},{"byteLength":4776,"uri":"data:application/octet-stream;base64,"},{"byteLength":9456,"uri":"data:application/octet-stream;base64,"},{"byteLength":24,"uri":"data:application/octet-stream;base64,"},{"byteLength":16,"uri":"data:application/octet-stream;base64,"},{"byteLength":8,"uri":"data:application/octet-stream;base64,"},{"byteLength":5328,"uri":"data:application/octet-stream;base64,"},{"byteLength":10560,"uri":"data:application/octet-stream;base64,"}],"cameras":[{"perspective":{"aspectRatio":1.3333333333333333,"yfov":0.5235987755982988,"zfar":90.8315837446253,"znear":30.65677586129786},"type":"perspective"}],"materials":[{"pbrMetallicRoughness":{"baseColorFactor":[1.0,1.0,1.0,1.0],"metallicFactor":0.0,"roughnessFactor":1.0}},{"pbrMetallicRoughness":{"baseColorFactor":[0.0,0.0,0.0,1.0],"metallicFactor":0.0,"roughnessFactor":1.0}},{"pbrMetallicRoughness":{"baseColorFactor":[1.0,1.0,1.0,1.0],"metallicFactor":0.0,"roughnessFactor":1.0}},{"pbrMetallicRoughness":{"baseColorFactor":[0.0,0.0,0.0,1.0],"metallicFactor":0.0,"roughnessFactor":1.0}},{"pbrMetallicRoughness":{"baseColorFactor":[1.0,1.0,1.0,1.0],"metallicFactor":0.0,"roughnessFactor":1.0}},{"pbrMetallicRoughness":{"baseColorFactor":[0.0,0.0,0.0,1.0],"metallicFactor":0.0,"roughnessFactor":1.0}},{"pbrMetallicRoughness":{"baseColorFactor":[1.0,1.0,1.0,1.0],"metallicFactor":0.0,"roughnessFactor":1.0}},{"pbrMetallicRoughness":{"baseColorFactor":[0.0,0.0,0.0,1.0],"metallicFactor":0.0,"roughnessFactor":1.0}},{"pbrMetallicRoughness":{"baseColorFactor":[1.0,1.0,1.0,1.0],"metallicFactor":0.0,"roughnessFactor":1.0}},{"pbrMetallicRoughness":{"baseColorFactor":[0.0,0.0,0.0,1.0],"metallicFactor":0.0,"roughnessFactor":1.0}},{"pbrMetallicRoughness":{"baseColorFactor":[1.0,1.0,1.0,1.0],"metallicFactor":0.0,"roughnessFactor":1.0}},{"pbrMetallicRoughness":{"baseColorFactor":[0.0,0.0,0.0,1.0],"metallicFactor":0.0,"roughnessFactor":1.0}},{"pbrMetallicRoughness":{"baseColorFactor":[1.0,1.0,1.0,1.0],"metallicFactor":0.0,"roughnessFactor":1.0}},{"pbrMetallicRoughness":{"baseColorFactor":[0.0,0.0,0.0,1.0],"metallicFactor":0.0,"roughnessFactor":1.0}},{"pbrMetallicRoughness":{"baseColorFactor":[0.0,0.0,0.0,1.0],"metallicFactor":0.0,"roughnessFactor":1.0}},{"pbrMetallicRoughness":{"baseColorFactor":[1.0,1.0,1.0,1.0],"metallicFactor":0.0,"roughnessFactor":1.0}},{"pbrMetallicRoughness":{"baseColorFactor":[0.0,0.0,0.0,1.0],"metallicFactor":0.0,"roughnessFactor":1.0}},{"pbrMetallicRoughness":{"baseColorFactor":[1.0,1.0,1.0,1.0],"metallicFactor":0.0,"roughnessFactor":1.0}}],"meshes":[{"name":"mesh0","primitives":[{"attributes":{"POSITION":0},"indices":1,"material":0,"mode":4}]},{"name":"mesh1","primitives":[{"attributes":{"POSITION":2,"TEXCOORD_0":3},"indices":4,"material":1,"mode":1}]},{"name":"mesh2","primitives":[{"attributes":{"POSITION":5},"indices":6,"material":2,"mode":4}]},{"name":"mesh3","primitives":[{"attributes":{"POSITION":7,"TEXCOORD_0":8},"indices":9,"material":3,"mode":4}]},{"name":"mesh4","primitives":[{"attributes":{"POSITION":10},"indices":11,"material":4,"mode":4}]},{"name":"mesh5","primitives":[{"attributes":{"POSITION":12,"TEXCOORD_0":13},"indices":14,"material":5,"mode":1}]},{"name":"mesh6","primitives":[{"attributes":{"POSITION":15},"indices":16,"material":6,"mode":4}]},{"name":"mesh7","primitives":[{"attributes":{"POSITION":17,"TEXCOORD_0":18},"indices":19,"material":7,"mode":4}]},{"name":"mesh8","primitives":[{"attributes":{"POSITION":20},"indices":21,"material":8,"mode":4}]},{"name":"mesh9","primitives":[{"attributes":{"POSITION":22,"TEXCOORD_0":23},"indices":24,"material":9,"mode":1}]},{"name":"mesh10","primitives":[{"attributes":{"POSITION":25},"indices":26,"material":10,"mode":4}]},{"name":"mesh11","primitives":[{"attributes":{"POSITION":27,"TEXCOORD_0":28},"indices":29,"material":11,"mode":4}]},{"name":"mesh12","primitives":[{"attributes":{"POSITION":30},"indices":31,"material":12,"mode":4}]},{"name":"mesh13","primitives":[{"attributes":{"POSITION":32,"TEXCOORD_0":33},"indices":34,"material":13,"mode":4}]},{"name":"mesh14","primitives":[{"attributes":{"POSITION":35,"TEXCOORD_0":36},"indices":37,"material":14,"mode":4}]},{"name":"mesh15","primitives":[{"attributes":{"POSITION":38},"indices":39,"material":15,"mode":4}]},{"name":"mesh16","primitives":[{"attributes":{"POSITION":40,"TEXCOORD_0":41},"indices":42,"material":16,"mode":1}]},{"name":"mesh17","primitives":[{"attributes":{"POSITION":43},"indices":44,"material":17,"mode":4}]}],"nodes":[{"mesh":0,"name":"mesh0"},{"mesh":1,"name":"mesh1"},{"mesh":2,"name":"mesh2"},{"mesh":3,"name":"mesh3"},{"mesh":4,"name":"mesh4"},{"mesh":5,"name":"mesh5"},{"mesh":6,"name":"mesh6"},{"mesh":7,"name":"mesh7"},{"mesh":8,"name":"mesh8"},{"mesh":9,"name":"mesh9"},{"mesh":10,"name":"mesh10"},{"mesh":11,"name":"mesh11"},{"mesh":12,"name":"mesh12"},{"mesh":13,"name":"mesh13"},{"mesh":14,"name":"mesh14"},{"mesh":15,"name":"mesh15"},{"mesh":16,"name":"mesh16"},{"mesh":17,"name":"mesh17"},{"camera":0,"matrix":[0.7071067811865474,-0.7071067811865476,2.7755575615628914e-17,-0.0,0.4082482904638631,0.40824829046386296,0.816496580927726,0.0,-0.5773502691896258,-0.5773502691896257,0.5773502691896257,-0.0,-28.04515872649808,-23.045158726498066,33.18085120372433,1.0],"name":"Camera Node"},{"children":[0,1,2,3,4,5,6,7,8,9,10,11,12,13,14,15,16,17,18],"name":"Renderer Node"}],"scene":0,"scenes":[{"name":"Layer 0","nodes":[19]}]}